<?xml version="1.0" encoding="iso-8859-1"?>
<!-- Generator: Adobe Illustrator 19.0.0, SVG Export Plug-In . SVG Version: 6.00 Build 0)  -->
<svg version="1.1" id="Capa_1" xmlns="http://www.w3.org/2000/svg" xmlns:xlink="http://www.w3.org/1999/xlink" x="0px" y="0px"
	 viewBox="0 0 511.999 511.999" style="enable-background:new 0 0 511.999 511.999;" xml:space="preserve">
<linearGradient id="SVGID_1_" gradientUnits="userSpaceOnUse" x1="2.862243e-004" y1="257.9965" x2="512.0024" y2="257.9965" gradientTransform="matrix(1 0 0 -1 -2.862226e-004 513.9946)">
	<stop  offset="0" style="stop-color:#cfd212"/>
	<stop  offset="0.021" style="stop-color:#cfd212"/>
	<stop  offset="0.293" style="stop-color:#cfd212"/>
	<stop  offset="0.554" style="stop-color:#cfd212"/>
	<stop  offset="0.796" style="stop-color:#cfd212"/>
	<stop  offset="1" style="stop-color:#cfd212"/>
</linearGradient>
<path style="fill:url(#SVGID_1_);" d="M373.534,511.998c-0.374,0-0.747-0.001-1.122-0.002
	c-35.304-0.177-73.771-9.137-114.332-26.633c-10.142-4.375-14.818-16.144-10.443-26.286c4.375-10.143,16.144-14.819,26.286-10.443
	c35.092,15.136,69.219,23.215,98.689,23.362c0.304,0.002,0.609,0.002,0.912,0.002c36.871,0,67.652-11.204,89.101-32.433l0.141-0.157
	c13.046-14.535,12.252-36.545-1.81-50.105c-53.701-51.783-79.053-48.028-102.518-25.145l-37.346,37.068
	c-5.858,5.814-14.686,7.434-22.226,4.075c-2.114-0.941-52.428-23.709-109.125-80.408l-2.632-2.629
	c-56.705-56.706-79.473-107.018-80.414-109.132c-3.358-7.54-1.739-16.368,4.075-22.226l37.074-37.353
	c22.88-23.463,26.63-48.814-25.151-102.511c-13.56-14.062-35.57-14.856-50.108-1.808l-0.153,0.138
	c-21.404,21.626-32.617,52.739-32.431,90.014c0.359,71.852,41.094,155.295,108.978,223.258c0.063,0.061,0.125,0.123,0.187,0.185
	c12.963,12.963,27.768,25.848,44.004,38.296c8.766,6.721,10.423,19.275,3.702,28.041c-6.722,8.765-19.276,10.423-28.041,3.702
	c-17.542-13.451-33.61-27.435-47.762-41.567c-0.063-0.062-0.125-0.123-0.188-0.186C45.602,315.837,0.413,221.808,0.003,139.588
	C-0.239,91.187,15.151,50.085,44.511,20.727c0.253-0.253,0.513-0.5,0.78-0.739l0.574-0.516C60.614,6.232,79.647-0.662,99.446,0.051
	c19.803,0.714,38.285,8.964,52.041,23.229c26.934,27.931,42.481,51.333,48.929,73.646c8.886,30.749,0.805,59.227-24.016,84.641
	c-0.038,0.039-0.075,0.077-0.113,0.115l-26.839,27.041c9.516,16.881,30.431,49.747,65.939,85.254l2.632,2.63
	c35.744,35.744,68.424,56.527,85.235,65.971l27.066-26.865c0.038-0.038,0.077-0.076,0.115-0.113
	c25.415-24.821,53.891-32.903,84.64-24.016c22.314,6.448,45.715,21.996,73.646,48.929c14.265,13.755,22.515,32.237,23.229,52.042
	c0.714,19.804-6.183,38.832-19.419,53.579l-0.519,0.577c-0.239,0.267-0.485,0.526-0.739,0.78
	C462.142,496.619,421.447,511.997,373.534,511.998z M385.738,218.998c10.591-3.135,16.636-14.263,13.5-24.854l-0.271-0.918
	c-3.085-10.482-8.827-29.994-29.51-50.677c-21.453-21.454-42.043-27.147-51.939-29.884c-10.649-2.945-21.663,3.299-24.607,13.946
	c-2.944,10.646,3.299,21.663,13.946,24.607c8.092,2.238,20.32,5.62,34.316,19.615c13.473,13.473,17.052,25.636,19.421,33.685
	l0.289,0.979c2.574,8.697,10.538,14.329,19.169,14.329C381.932,219.827,383.844,219.559,385.738,218.998z M490.908,244.095
	c0.285-59.837-22.778-116.009-64.94-158.172C384.134,44.088,328.43,21.09,269.004,21.09c-0.365,0-0.733,0.001-1.099,0.002
	c-11.046,0.053-19.957,9.05-19.905,20.095c0.053,11.013,8.997,19.905,19.998,19.905c0.337,0,0.665-0.002,1-0.002
	c48.74,0,94.412,18.844,128.686,53.118c34.557,34.557,53.459,80.618,53.225,129.697c-0.052,11.045,8.859,20.042,19.905,20.095
	c0.033,0,0.064,0,0.097,0C481.91,264,490.855,255.108,490.908,244.095z"/>
<g>
</g>
<g>
</g>
<g>
</g>
<g>
</g>
<g>
</g>
<g>
</g>
<g>
</g>
<g>
</g>
<g>
</g>
<g>
</g>
<g>
</g>
<g>
</g>
<g>
</g>
<g>
</g>
<g>
</g>
</svg>
