<svg height="512" viewBox="0 0 512 512" width="512" xmlns="http://www.w3.org/2000/svg" xmlns:xlink="http://www.w3.org/1999/xlink">
<linearGradient id="linear-gradient" gradientUnits="userSpaceOnUse" x1="118.043" x2="393.973" y1="361.357" y2="85.427">
<stop offset="0" stop-color="#cfd212"/>
<stop offset="1" stop-color="#cfd212"/>
</linearGradient>
<g id="gradient">
<path d="m374.146 131.832-40-48a8 8 0 0 0 -6.146-2.878h-136a7.976 7.976 0 0 0 -5.657 2.343l-48 48a8 8 0 0 0 -2.343 5.657v112a8 8 0 0 0 8 8h224a8 8 0 0 0 8-8v-112a7.965 7.965 0 0 0 -1.856-5.121zm-23.226-2.878h-107.606l-32-32h112.939zm-198.92 11.314 40-40 40 40v100.686h-16v-64a24 24 0 0 0 -48 0v64h-16zm32 100.686v-64a8 8 0 0 1 16 0v64zm176 0h-112v-96h112zm-80-32h32a8 8 0 0 0 8-8v-32a8 8 0 0 0 -8-8h-32a8 8 0 0 0 -8 8v32a8 8 0 0 0 8 8zm8-32h16v16h-16zm61.855 97.231a8 8 0 0 1 -.4 11.306 136.242 136.242 0 0 1 -76.82 35.7 137.124 137.124 0 0 1 -110.074-35.706 8 8 0 1 1 10.886-11.724 121.279 121.279 0 0 0 165.106.015 8 8 0 0 1 11.302.409zm74.145-90.306a170.61 170.61 0 0 0 -1.235-19.281c-11.227-91.953-95.153-157.637-187.121-146.407-87.8 10.718-152.53 88.221-147.358 176.446l.053.878c.031.532.063 1.064.1 1.531a198.557 198.557 0 0 0 31.2 94.348l129.64 200.943a8 8 0 0 0 13.446 0l129.64-200.943a198.7 198.7 0 0 0 30.968-91.227c.481-5.333.7-10.777.669-16.183-.002-.034-.002-.069-.002-.105zm-16 .16v.054c.033 4.892-.17 9.817-.61 14.706a182.7 182.7 0 0 1 -28.472 83.921l-122.918 190.523-122.918-190.523a182.6 182.6 0 0 1 -28.682-86.793c-.034-.454-.06-.907-.087-1.361l-.052-.869c-4.681-79.812 53.882-149.927 133.322-159.624a152.823 152.823 0 0 1 18.527-1.13c75.663 0 141.374 56.623 150.77 133.593a154.253 154.253 0 0 1 1.12 17.464zm-87.217 156.3-5.162 8a8 8 0 1 1 -13.443-8.674l5.162-8a8 8 0 1 1 13.443 8.674zm-20.644 32-37.416 58a8 8 0 0 1 -13.446-8.674l37.416-57.995a8 8 0 0 1 13.446 8.674z" fill="url(#linear-gradient)"/>
</g>
</svg>